<svg width="1600" height="900" viewBox="0 0 1600 900" xmlns="http://www.w3.org/2000/svg">
 <desc>A complex concrete world is progressively abstracted while selected distinctions remain preserved.</desc>
 <defs><pattern id="a" width="80" height="80" patternUnits="userSpaceOnUse"><path d="M80 0H0V80" fill="none" stroke="#171716" stroke-opacity=".035"/></pattern></defs>
 <rect width="1600" height="900" fill="#F3F0E8"/><rect width="1600" height="900" fill="url(#a)"/><rect x="112" y="92" width="56" height="6" fill="#A44332"/>
 <line x1="300" x2="337" y1="690" y2="538" stroke="#817B72" stroke-opacity=".45" stroke-width="1.4"/><line x1="300" x2="172" y1="690" y2="625" stroke="#817B72" stroke-opacity=".45" stroke-width="1.4"/><line x1="300" x2="322" y1="690" y2="503" stroke="#817B72" stroke-opacity=".45" stroke-width="1.4"/><line x1="337" x2="172" y1="538" y2="625" stroke="#817B72" stroke-opacity=".45" stroke-width="1.4"/><line x1="337" x2="322" y1="538" y2="503" stroke="#817B72" stroke-opacity=".45" stroke-width="1.4"/><line x1="337" x2="394" y1="538" y2="314" stroke="#817B72" stroke-opacity=".45" stroke-width="1.4"/><line x1="172" x2="322" y1="625" y2="503" stroke="#817B72" stroke-opacity=".45" stroke-width="1.4"/><line x1="172" x2="179" y1="625" y2="427" stroke="#817B72" stroke-opacity=".45" stroke-width="1.4"/><line x1="322" x2="394" y1="503" y2="314" stroke="#817B72" stroke-opacity=".45" stroke-width="1.4"/><line x1="322" x2="179" y1="503" y2="427" stroke="#817B72" stroke-opacity=".45" stroke-width="1.4"/><line x1="394" x2="170" y1="314" y2="328" stroke="#817B72" stroke-opacity=".45" stroke-width="1.4"/><line x1="394" x2="417" y1="314" y2="422" stroke="#817B72" stroke-opacity=".45" stroke-width="1.4"/><line x1="179" x2="170" y1="427" y2="328" stroke="#817B72" stroke-opacity=".45" stroke-width="1.4"/><line x1="179" x2="417" y1="427" y2="422" stroke="#817B72" stroke-opacity=".45" stroke-width="1.4"/><line x1="417" x2="424" y1="422" y2="268" stroke="#817B72" stroke-opacity=".45" stroke-width="1.4"/><line x1="417" x2="457" y1="422" y2="526" stroke="#817B72" stroke-opacity=".45" stroke-width="1.4"/><line x1="417" x2="430" y1="422" y2="504" stroke="#817B72" stroke-opacity=".45" stroke-width="1.4"/><line x1="424" x2="430" y1="268" y2="504" stroke="#817B72" stroke-opacity=".45" stroke-width="1.4"/><line x1="457" x2="430" y1="526" y2="504" stroke="#817B72" stroke-opacity=".45" stroke-width="1.4"/><line x1="457" x2="420" y1="526" y2="644" stroke="#817B72" stroke-opacity=".45" stroke-width="1.4"/><line x1="430" x2="420" y1="504" y2="644" stroke="#817B72" stroke-opacity=".45" stroke-width="1.4"/><line x1="430" x2="283" y1="504" y2="419" stroke="#817B72" stroke-opacity=".45" stroke-width="1.4"/><line x1="160" x2="283" y1="318" y2="419" stroke="#817B72" stroke-opacity=".45" stroke-width="1.4"/><line x1="420" x2="421" y1="644" y2="622" stroke="#817B72" stroke-opacity=".45" stroke-width="1.4"/><line x1="283" x2="411" y1="419" y2="265" stroke="#817B72" stroke-opacity=".45" stroke-width="1.4"/><line x1="283" x2="187" y1="419" y2="502" stroke="#817B72" stroke-opacity=".45" stroke-width="1.4"/><line x1="411" x2="325" y1="265" y2="254" stroke="#817B72" stroke-opacity=".45" stroke-width="1.4"/><line x1="187" x2="389" y1="502" y2="553" stroke="#817B72" stroke-opacity=".45" stroke-width="1.4"/><line x1="325" x2="423" y1="254" y2="235" stroke="#817B72" stroke-opacity=".45" stroke-width="1.4"/><line x1="325" x2="295" y1="254" y2="443" stroke="#817B72" stroke-opacity=".45" stroke-width="1.4"/><line x1="423" x2="320" y1="235" y2="358" stroke="#817B72" stroke-opacity=".45" stroke-width="1.4"/><line x1="389" x2="295" y1="553" y2="443" stroke="#817B72" stroke-opacity=".45" stroke-width="1.4"/><line x1="389" x2="320" y1="553" y2="358" stroke="#817B72" stroke-opacity=".45" stroke-width="1.4"/><line x1="295" x2="320" y1="443" y2="358" stroke="#817B72" stroke-opacity=".45" stroke-width="1.4"/>
 <circle cx="300" cy="690" r="7" fill="#F3F0E8" stroke="#171716" stroke-opacity=".95" stroke-width="1.8"/><circle cx="337" cy="538" r="6" fill="#F3F0E8" stroke="#171716" stroke-opacity=".95" stroke-width="1.8"/><circle cx="172" cy="625" r="6" fill="#F3F0E8" stroke="#A44332" stroke-opacity=".95" stroke-width="3"/><circle cx="322" cy="503" r="6" fill="#F3F0E8" stroke="#171716" stroke-opacity=".95" stroke-width="1.8"/><circle cx="394" cy="314" r="6" fill="#F3F0E8" stroke="#171716" stroke-opacity=".95" stroke-width="1.8"/><circle cx="179" cy="427" r="10" fill="#F3F0E8" stroke="#171716" stroke-opacity=".95" stroke-width="1.8"/><circle cx="170" cy="328" r="6" fill="#F3F0E8" stroke="#171716" stroke-opacity=".95" stroke-width="1.8"/><circle cx="417" cy="422" r="6" fill="#F3F0E8" stroke="#171716" stroke-opacity=".95" stroke-width="1.8"/><circle cx="424" cy="268" r="7" fill="#F3F0E8" stroke="#A44332" stroke-opacity=".95" stroke-width="3"/><circle cx="457" cy="526" r="6" fill="#F3F0E8" stroke="#171716" stroke-opacity=".95" stroke-width="1.8"/><circle cx="430" cy="504" r="10" fill="#F3F0E8" stroke="#171716" stroke-opacity=".95" stroke-width="1.8"/><circle cx="160" cy="318" r="6" fill="#F3F0E8" stroke="#171716" stroke-opacity=".95" stroke-width="1.8"/><circle cx="420" cy="644" r="7" fill="#F3F0E8" stroke="#171716" stroke-opacity=".95" stroke-width="1.8"/><circle cx="283" cy="419" r="7" fill="#F3F0E8" stroke="#A44332" stroke-opacity=".95" stroke-width="3"/><circle cx="411" cy="265" r="8" fill="#F3F0E8" stroke="#171716" stroke-opacity=".95" stroke-width="1.8"/><circle cx="421" cy="622" r="7" fill="#F3F0E8" stroke="#171716" stroke-opacity=".95" stroke-width="1.8"/><circle cx="187" cy="502" r="7" fill="#F3F0E8" stroke="#171716" stroke-opacity=".95" stroke-width="1.8"/><circle cx="325" cy="254" r="6" fill="#F3F0E8" stroke="#171716" stroke-opacity=".95" stroke-width="1.8"/><circle cx="423" cy="235" r="7" fill="#F3F0E8" stroke="#171716" stroke-opacity=".95" stroke-width="1.8"/><circle cx="389" cy="553" r="10" fill="#F3F0E8" stroke="#A44332" stroke-opacity=".95" stroke-width="3"/><circle cx="295" cy="443" r="10" fill="#F3F0E8" stroke="#171716" stroke-opacity=".95" stroke-width="1.8"/><circle cx="320" cy="358" r="7" fill="#F3F0E8" stroke="#171716" stroke-opacity=".95" stroke-width="1.8"/>
 <rect x="610" y="220" width="150" height="470" rx="0" fill="none" stroke="#171716" stroke-opacity=".82" stroke-width="2"/><line x1="685" x2="685" y1="186" y2="220" stroke="#171716" stroke-opacity=".45"/><line x1="685" x2="685" y1="690" y2="724" stroke="#171716" stroke-opacity=".45"/><rect x="805" y="255" width="126" height="400" rx="0" fill="none" stroke="#171716" stroke-opacity=".82" stroke-width="2"/><line x1="868" x2="868" y1="221" y2="255" stroke="#171716" stroke-opacity=".45"/><line x1="868" x2="868" y1="655" y2="689" stroke="#171716" stroke-opacity=".45"/><rect x="975" y="290" width="104" height="330" rx="0" fill="none" stroke="#171716" stroke-opacity=".82" stroke-width="2"/><line x1="1027" x2="1027" y1="256" y2="290" stroke="#171716" stroke-opacity=".45"/><line x1="1027" x2="1027" y1="620" y2="654" stroke="#171716" stroke-opacity=".45"/>
 <path d="m500 310c70-30 110 20 170 0" fill="none" stroke="#817B72" stroke-dasharray="7 8" stroke-linecap="square" stroke-opacity=".25" stroke-width="1.5"/><path d="m500 390c70-30 110 20 170 0" fill="none" stroke="#817B72" stroke-dasharray="7 8" stroke-linecap="square" stroke-opacity=".25" stroke-width="1.5"/><path d="m500 485c70-30 110 20 170 0" fill="none" stroke="#817B72" stroke-dasharray="7 8" stroke-linecap="square" stroke-opacity=".25" stroke-width="1.5"/><path d="m500 590c70-30 110 20 170 0" fill="none" stroke="#817B72" stroke-dasharray="7 8" stroke-linecap="square" stroke-opacity=".25" stroke-width="1.5"/><path d="m330 294c190-24 230 46 355 76s195 40 345 20 170-30 275-40" fill="none" stroke="#A44332" stroke-linecap="square" stroke-width="4"/><path d="m250 575c210 15 310-55 435-70s185-5 335 15 180 40 285 35" fill="none" stroke="#A44332" stroke-linecap="square" stroke-width="4"/>
 <circle cx="1280" cy="300" r="10" fill="#F3F0E8" stroke="#171716" stroke-width="2"/><line x1="1290" x2="1380" y1="300" y2="300" stroke="#171716" stroke-opacity=".65" stroke-width="1.5"/><line x1="1280" x2="1280" y1="310" y2="440" stroke="#171716" stroke-opacity=".65" stroke-width="1.5"/><circle cx="1390" cy="300" r="10" fill="#F3F0E8" stroke="#171716" stroke-width="2"/><line x1="1400" x2="1490" y1="300" y2="300" stroke="#171716" stroke-opacity=".65" stroke-width="1.5"/><line x1="1390" x2="1390" y1="310" y2="440" stroke="#171716" stroke-opacity=".65" stroke-width="1.5"/><circle cx="1500" cy="300" r="10" fill="#F3F0E8" stroke="#171716" stroke-width="2"/><line x1="1500" x2="1500" y1="310" y2="440" stroke="#171716" stroke-opacity=".65" stroke-width="1.5"/><circle cx="1280" cy="450" r="10" fill="#F3F0E8" stroke="#171716" stroke-width="2"/><line x1="1290" x2="1380" y1="450" y2="450" stroke="#171716" stroke-opacity=".65" stroke-width="1.5"/><line x1="1280" x2="1280" y1="460" y2="590" stroke="#171716" stroke-opacity=".65" stroke-width="1.5"/><circle cx="1390" cy="450" r="10" fill="#F3F0E8" stroke="#171716" stroke-width="2"/><line x1="1400" x2="1490" y1="450" y2="450" stroke="#171716" stroke-opacity=".65" stroke-width="1.5"/><line x1="1390" x2="1390" y1="460" y2="590" stroke="#171716" stroke-opacity=".65" stroke-width="1.5"/><circle cx="1500" cy="450" r="10" fill="#F3F0E8" stroke="#171716" stroke-width="2"/><line x1="1500" x2="1500" y1="460" y2="590" stroke="#171716" stroke-opacity=".65" stroke-width="1.5"/><circle cx="1280" cy="600" r="10" fill="#F3F0E8" stroke="#171716" stroke-width="2"/><line x1="1290" x2="1380" y1="600" y2="600" stroke="#171716" stroke-opacity=".65" stroke-width="1.5"/><circle cx="1390" cy="600" r="10" fill="#F3F0E8" stroke="#171716" stroke-width="2"/><line x1="1400" x2="1490" y1="600" y2="600" stroke="#171716" stroke-opacity=".65" stroke-width="1.5"/><circle cx="1500" cy="600" r="10" fill="#F3F0E8" stroke="#171716" stroke-width="2"/><circle cx="1280" cy="300" r="11" fill="#A44332" stroke="#A44332"/><circle cx="1280" cy="600" r="11" fill="#A44332" stroke="#A44332"/>
</svg>