<svg xmlns="http://www.w3.org/2000/svg" viewBox="0 0 1440 960" width="1440" height="960">
  <rect width="1440" height="960" fill="#F3F0E8"/>
  <rect x="330" y="126" width="780" height="708" fill="none" stroke="#A44332" stroke-width="5"/>
  <text x="380" y="214" font-family="ui-monospace, monospace" font-size="58" font-weight="600" fill="#171716">.fsl</text>
  <g fill="none" stroke="#171716" stroke-width="3">
    <circle cx="550" cy="390" r="58"/><circle cx="850" cy="390" r="58"/><circle cx="700" cy="600" r="66"/>
    <path d="M600 420L660 552M800 420L740 552M608 390H792"/>
    <rect x="474" y="674" width="184" height="80"/><rect x="782" y="674" width="184" height="80"/>
  </g>
  <text x="506" y="727" font-family="ui-monospace, monospace" font-size="28" fill="#171716">Claim</text>
  <g fill="none" stroke="#171716" stroke-opacity=".38" stroke-width="3" stroke-dasharray="10 10">
    <path d="M330 300H176V210"/><path d="M1110 310H1270V216"/><path d="M1110 540H1280V650"/><path d="M330 570H168V700"/>
  </g>
  <g fill="#F3F0E8" stroke="#171716" stroke-width="3">
    <circle cx="176" cy="190" r="52"/><rect x="1210" y="154" width="120" height="90"/><circle cx="1280" cy="700" r="55"/><rect x="112" y="700" width="120" height="90"/>
  </g>
  <g stroke="#171716" stroke-opacity=".18" stroke-width="2">
    <line x1="92" y1="870" x2="1348" y2="870"/>
  </g>
</svg>
