<svg xmlns="http://www.w3.org/2000/svg" viewBox="0 0 1440 960" width="1440" height="960">
  <rect width="1440" height="960" fill="#F3F0E8"/>
  <rect x="110" y="112" width="1220" height="190" fill="none" stroke="#171716" stroke-width="2"/>
  <rect x="110" y="386" width="1220" height="190" fill="none" stroke="#171716" stroke-width="2"/>
  <rect x="110" y="660" width="1220" height="190" fill="none" stroke="#171716" stroke-width="2"/>
  <text x="160" y="220" font-family="ui-monospace, monospace" font-size="54" font-weight="600" fill="#171716">.fsl</text>
  <text x="160" y="494" font-family="ui-monospace, monospace" font-size="54" font-weight="600" fill="#171716">.fsp</text>
  <g fill="#F3F0E8" stroke="#171716" stroke-width="3">
    <circle cx="510" cy="207" r="48"/><circle cx="720" cy="207" r="48"/><circle cx="930" cy="207" r="48"/>
    <rect x="454" y="430" width="112" height="96"/><rect x="664" y="430" width="112" height="96"/><rect x="874" y="430" width="112" height="96"/>
    <circle cx="510" cy="755" r="50"/><rect x="664" y="705" width="112" height="100"/><circle cx="930" cy="755" r="50"/>
  </g>
  <g stroke="#A44332" stroke-width="5" fill="none">
    <path d="M510 255V430M720 255V430M930 255V430"/>
  </g>
  <g stroke="#171716" stroke-opacity=".5" stroke-width="3" fill="none" stroke-dasharray="10 10">
    <path d="M510 705V526M720 705V526M930 705V526"/>
  </g>
  <path d="M1110 207V755" stroke="#171716" stroke-opacity=".18" stroke-width="2"/>
  <path d="M1130 238L1170 207L1130 176M1150 724L1190 755L1150 786" fill="none" stroke="#171716" stroke-opacity=".35" stroke-width="3"/>
</svg>
